<svg width="1600" height="1200" viewBox="0 0 1600 1200" fill="none" xmlns="http://www.w3.org/2000/svg">
<rect width="1600" height="1200" fill="white"/>
<path d="M930.821 389H906.255C860.056 389 822.604 426.427 822.604 472.595C822.604 518.763 860.056 556.19 906.255 556.19H930.821C977.02 556.19 1014.47 518.763 1014.47 472.595C1014.47 426.427 977.02 389 930.821 389Z" fill="#1E1E1E"/>
<path d="M742.898 389H718.332C672.133 389 634.681 426.427 634.681 472.595C634.681 518.763 672.133 556.19 718.332 556.19H742.898C789.097 556.19 826.549 518.763 826.549 472.595C826.549 426.427 789.097 389 742.898 389Z" fill="#1E1E1E"/>
<path d="M931.349 642.81H906.783C860.584 642.81 823.133 680.237 823.133 726.405C823.133 772.573 860.584 810 906.783 810H931.349C977.548 810 1015 772.573 1015 726.405C1015 680.237 977.548 642.81 931.349 642.81Z" fill="#1E1E1E"/>
<path d="M742.898 642.81H718.332C672.133 642.81 634.681 680.237 634.681 726.405C634.681 772.573 672.133 810 718.332 810H742.898C789.097 810 826.549 772.573 826.549 726.405C826.549 680.237 789.097 642.81 742.898 642.81Z" fill="#1E1E1E"/>
<path d="M729.916 551.689H633.951C607.469 551.689 586 573.144 586 599.609C586 626.074 607.469 647.528 633.951 647.528H729.916C756.399 647.528 777.868 626.074 777.868 599.609C777.868 573.144 756.399 551.689 729.916 551.689Z" fill="#1E1E1E"/>
</svg>
