<svg width="1920" height="1080" viewBox="0 0 1920 1080" fill="none" xmlns="http://www.w3.org/2000/svg">
<g id="casssa 1">
<g id="rec1">
<path id="rec_1" d="M1081.97 342.55H1058.37C1038.13 342.55 1019.63 350.074 1005.5 362.493C988.646 377.305 978 399.08 978 423.355C978 444.788 986.299 464.271 999.843 478.735C1014.5 494.387 1035.3 504.16 1058.37 504.16H1081.97C1105.04 504.16 1125.84 494.387 1140.5 478.735C1154.04 464.271 1162.34 444.788 1162.34 423.355C1162.34 401.922 1154.04 382.438 1140.5 367.974C1125.84 352.322 1105.04 342.55 1081.97 342.55Z" fill="#6E1B15"/>
<path id="rec_1_a" d="M1082.11 336.55H1056.89C1035.25 336.55 1023.1 355.206 1008 368.5C989.989 384.356 971 397.064 971 423.05C971 445.993 993.526 462.905 1008 478.388C1023.66 495.143 1032.23 509.55 1056.89 509.55H1082.11C1106.77 509.55 1112.84 483.755 1128.5 467C1142.97 451.517 1168 445.993 1168 423.05C1168 400.106 1149.97 390.483 1135.5 375C1119.84 358.245 1106.77 336.55 1082.11 336.55Z" fill="#6E1B15"/>
<path id="rec_1_b" d="M1071.62 350.899C1049.27 350.899 1015.72 334.21 1000.12 347.899C981.514 364.227 1000.12 395.659 1000.12 422.417C1000.12 446.043 988.546 477.557 1003.5 493.5C1019.68 510.754 1052.27 489.321 1077.74 489.321C1103.22 489.321 1140.32 499.754 1156.5 482.5C1171.45 466.557 1156.5 446.043 1156.5 422.417C1156.5 398.792 1179.92 377.315 1164.97 361.372C1148.79 344.118 1097.09 350.899 1071.62 350.899Z" fill="#6E1B15"/>
<path id="rec_1_c" d="M1082.03 337.1H1058.42C1038.18 337.1 1025.68 348.681 1011.55 361.1C994.699 375.912 978.053 393.63 978.053 417.905C978.053 439.338 976.509 471.637 990.053 486.1C1004.71 501.752 1035.35 498.71 1058.42 498.71H1082.03C1105.1 498.71 1113.4 481.252 1128.05 465.6C1141.6 451.137 1162.4 439.338 1162.4 417.905C1162.4 396.472 1165.6 365.063 1152.05 350.6C1137.4 334.948 1105.1 337.1 1082.03 337.1Z" fill="#6E1B15"/>
</g>
<g id="rec2">
<path id="rec_2" d="M901.973 338.55H878.371C858.127 338.55 839.631 346.074 825.5 358.493C808.646 373.305 798 395.08 798 419.355C798 440.788 806.299 460.271 819.843 474.735C834.501 490.387 855.3 500.16 878.371 500.16H901.973C925.043 500.16 945.843 490.387 960.5 474.735C974.044 460.271 982.343 440.788 982.343 419.355C982.343 397.922 974.044 378.438 960.5 363.974C945.843 348.322 925.043 338.55 901.973 338.55Z" fill="#6E1B15"/>
<path id="rec_2_a" d="M902.111 336.55H876.889C855.255 336.55 843.101 355.206 828 368.5C809.989 384.356 791 397.064 791 423.05C791 445.993 813.526 462.905 828 478.388C843.664 495.143 852.234 509.55 876.889 509.55H902.111C926.766 509.55 932.836 483.755 948.5 467C962.974 451.517 988 445.993 988 423.05C988 400.106 969.974 390.483 955.5 375C939.836 358.245 926.766 336.55 902.111 336.55Z" fill="#6E1B15"/>
<path id="rec_2_b" d="M891.622 350.899C869.271 350.899 835.725 334.21 820.122 347.899C801.514 364.227 820.122 395.659 820.122 422.417C820.122 446.043 808.546 477.557 823.5 493.5C839.683 510.754 872.273 489.321 897.745 489.321C923.217 489.321 960.317 499.754 976.5 482.5C991.454 466.557 976.5 446.043 976.5 422.417C976.5 398.792 999.924 377.315 984.97 361.372C968.787 344.118 917.095 350.899 891.622 350.899Z" fill="#6E1B15"/>
<path id="rec_2_c" d="M902.026 332.1H878.424C858.18 332.1 845.684 343.681 831.553 356.1C814.699 370.912 798.053 388.63 798.053 412.905C798.053 434.338 796.509 466.637 810.053 481.1C824.711 496.752 855.353 493.71 878.424 493.71H902.026C925.096 493.71 933.396 476.252 948.053 460.6C961.597 446.137 982.396 434.338 982.396 412.905C982.396 391.472 985.597 360.063 972.053 345.6C957.396 329.948 925.096 332.1 902.026 332.1Z" fill="#6E1B15"/>
</g>
<g id="rec3">
<path id="rec_3" d="M889.765 498.55C864.229 498.55 861.567 498.55 843.5 498.55C825.432 498.55 822.77 498.55 797.235 498.55C771.699 498.55 751 519.368 751 545.05C751 570.731 771.699 591.55 797.235 591.55C822.77 591.55 825.432 591.55 843.5 591.55C861.567 591.55 864.229 591.55 889.765 591.55C915.3 591.55 936 570.731 936 545.05C936 519.368 915.3 498.55 889.765 498.55Z" fill="#6E1B15"/>
<path id="rec_3_a" d="M892.617 497C866.079 497 863.312 505.5 844.535 505.5C825.758 505.5 822.992 497 796.453 497C769.915 497 758 517.818 758 543.5C758 569.182 769.915 590 796.453 590C822.992 590 825.758 582 844.535 582C863.312 582 866.079 590 892.617 590C919.156 590 930 569.182 930 543.5C930 517.818 919.156 497 892.617 497Z" fill="#6E1B15"/>
<path id="rec_3_b" d="M892.692 505.215C865.265 505.215 862.406 495 843 495C823.594 495 818.334 497.688 790.907 497.688C763.48 497.688 756 517.385 756 545C756 572.615 765.881 582.634 793.308 582.634C820.735 582.634 823.594 595 843 595C862.406 595 865.265 585.86 892.692 585.86C920.119 585.86 930 572.615 930 545C930 517.385 920.119 505.215 892.692 505.215Z" fill="#6E1B15"/>
<path id="rec_3_c" d="M888.472 498.477C862.894 498.477 860.228 486 842.131 486C824.034 486 821.368 498.477 795.79 498.477C770.213 498.477 762 518.28 762 542.709C762 567.138 770.213 586.94 795.79 586.94C821.368 586.94 824.034 603 842.131 603C860.228 603 862.894 586.94 888.472 586.94C914.049 586.94 924 567.138 924 542.709C924 518.28 914.049 498.477 888.472 498.477Z" fill="#6E1B15"/>
</g>
<g id="rec4">
<path id="rec_4" d="M901.973 587.55H878.371C858.127 587.55 839.631 595.074 825.5 607.493C808.646 622.305 798 644.08 798 668.355C798 689.788 806.3 709.271 819.843 723.735C834.501 739.387 855.3 749.16 878.371 749.16H901.973C925.043 749.16 945.843 739.387 960.5 723.735C974.044 709.271 982.343 689.788 982.343 668.355C982.343 646.922 974.044 627.438 960.5 612.974C945.843 597.322 925.043 587.55 901.973 587.55Z" fill="#6E1B15"/>
<path id="rec_4_a" d="M902.111 582H876.889C855.255 582 843.101 600.656 828 613.95C809.989 629.806 791 642.514 791 668.5C791 691.444 813.526 708.356 828 723.838C843.664 740.594 852.234 755 876.889 755H902.111C926.766 755 932.836 729.206 948.5 712.45C962.974 696.968 988 691.444 988 668.5C988 645.556 969.974 635.933 955.5 620.45C939.836 603.695 926.766 582 902.111 582Z" fill="#6E1B15"/>
<path id="rec_4_b" d="M891.622 596.35C869.271 596.35 835.725 579.66 820.122 593.35C801.514 609.677 820.122 641.109 820.122 667.868C820.122 691.493 808.546 723.007 823.5 738.95C839.683 756.204 872.273 734.772 897.745 734.772C923.217 734.772 960.317 745.204 976.5 727.95C991.454 712.007 976.5 691.493 976.5 667.868C976.5 644.242 999.924 622.765 984.97 606.822C968.787 589.569 917.095 596.35 891.622 596.35Z" fill="#6E1B15"/>
<path id="rec_4_c" d="M902.026 588.1H878.424C858.18 588.1 845.684 599.681 831.553 612.1C814.699 626.912 798.053 644.63 798.053 668.905C798.053 690.338 796.509 722.637 810.053 737.1C824.711 752.752 855.353 749.71 878.424 749.71H902.026C925.096 749.71 933.396 732.252 948.053 716.6C961.597 702.137 982.396 690.338 982.396 668.905C982.396 647.472 985.597 616.063 972.053 601.6C957.396 585.948 925.096 588.1 902.026 588.1Z" fill="#6E1B15"/>
</g>
<g id="rec5">
<path id="rec_5" d="M1081.97 587.55H1058.37C1038.13 587.55 1019.63 595.075 1005.5 607.494C988.646 622.306 978 644.081 978 668.355C978 689.788 986.299 709.272 999.843 723.736C1014.5 739.388 1035.3 749.16 1058.37 749.16H1081.97C1105.04 749.16 1125.84 739.388 1140.5 723.736C1154.04 709.272 1162.34 689.788 1162.34 668.355C1162.34 646.922 1154.04 627.439 1140.5 612.975C1125.84 597.323 1105.04 587.55 1081.97 587.55Z" fill="#6E1B15"/>
<path id="rec_5_a" d="M1085.11 582H1059.89C1038.25 582 1026.1 600.656 1011 613.95C992.989 629.806 974 642.514 974 668.5C974 691.444 996.526 708.356 1011 723.838C1026.66 740.594 1035.23 755 1059.89 755H1085.11C1109.77 755 1115.84 729.206 1131.5 712.45C1145.97 696.968 1171 691.444 1171 668.5C1171 645.556 1152.97 635.933 1138.5 620.45C1122.84 603.695 1109.77 582 1085.11 582Z" fill="#6E1B15"/>
<path id="rec_5_b" d="M1074.62 596.35C1052.27 596.35 1018.72 579.66 1003.12 593.35C984.514 609.677 1003.12 641.109 1003.12 667.868C1003.12 691.493 991.546 723.007 1006.5 738.95C1022.68 756.204 1055.27 734.772 1080.74 734.772C1106.22 734.772 1143.32 745.204 1159.5 727.95C1174.45 712.007 1159.5 691.493 1159.5 667.868C1159.5 644.242 1182.92 622.765 1167.97 606.822C1151.79 589.569 1100.09 596.35 1074.62 596.35Z" fill="#6E1B15"/>
<path id="rec_5_c" d="M1085.03 587.1H1061.42C1041.18 587.1 1028.68 598.681 1014.55 611.1C997.699 625.912 981.053 643.63 981.053 667.905C981.053 689.338 979.509 721.637 993.053 736.1C1007.71 751.752 1038.35 748.71 1061.42 748.71H1085.03C1108.1 748.71 1116.4 731.252 1131.05 715.6C1144.6 701.137 1165.4 689.338 1165.4 667.905C1165.4 646.472 1168.6 615.063 1155.05 600.6C1140.4 584.948 1108.1 587.1 1085.03 587.1Z" fill="#6E1B15"/>
</g>
</g>
</svg>
