 <svg id="casssa_logo" class="casssa_logo" width="1368" height="720" viewBox="0 0 1368 720" fill="none"
            xmlns="http://www.w3.org/2000/svg">
            <defs>
                <filter id="blur">
                  <feGaussianBlur in="SourceGraphic" stdDeviation="10,10"></feGaussianBlur>
                </filter>
              </defs>
            <path id="rec_1" class="shapes"
                d="M768.06 224H752.24C722.488 224 698.37 248.118 698.37 277.87C698.37 307.622 722.488 331.74 752.24 331.74H768.06C797.812 331.74 821.93 307.622 821.93 277.87C821.93 248.118 797.812 224 768.06 224Z"
                fill="#6e1b15" />
            <path id="rec_2" class="shapes"
                d="M647.04 224H631.22C601.468 224 577.35 248.118 577.35 277.87C577.35 307.622 601.468 331.74 631.22 331.74H647.04C676.792 331.74 700.91 307.622 700.91 277.87C700.91 248.118 676.792 224 647.04 224Z"
                fill="#6e1b15" />
            <path id="rec_3" class="shapes"
                d="M638.68 328.84H576.88C559.825 328.84 546 342.665 546 359.72C546 376.775 559.825 390.6 576.88 390.6H638.68C655.735 390.6 669.56 376.775 669.56 359.72C669.56 342.665 655.735 328.84 638.68 328.84Z"
                fill="#6e1b15" />
            <path id="rec_4" class="shapes"
                d="M647.04 387.56H631.22C601.468 387.56 577.35 411.678 577.35 441.43C577.35 471.182 601.468 495.3 631.22 495.3H647.04C676.792 495.3 700.91 471.182 700.91 441.43C700.91 411.678 676.792 387.56 647.04 387.56Z"
                fill="#6e1b15" />
            <path id="rec_5" class="shapes"
                d="M768.4 387.56H752.58C722.828 387.56 698.71 411.678 698.71 441.43C698.71 471.182 722.828 495.3 752.58 495.3H768.4C798.152 495.3 822.27 471.182 822.27 441.43C822.27 411.678 798.152 387.56 768.4 387.56Z"
                fill="#6e1b15" />
        </svg>