<svg width="1920" height="1080" viewBox="0 0 1920 1080" fill="none" xmlns="http://www.w3.org/2000/svg">
<g id="casssa 1">
<g id="rec1">
<path id="rec_1" d="M1077.61 334H1054.01C1009.62 334 973.642 370.177 973.642 414.805C973.642 459.433 1009.62 495.61 1054.01 495.61H1077.61C1122 495.61 1157.98 459.433 1157.98 414.805C1157.98 370.177 1122 334 1077.61 334Z" fill="#6E1B15"/>
<path id="rec_1_a" d="M1067.5 382.551C1033.5 426.551 976 351.228 976 395.856C976 440.484 1011.98 476.661 1056.37 476.661H1079.97C1124.36 476.661 1160.34 440.484 1160.34 395.856C1160.34 351.228 1109.5 335.551 1067.5 382.551Z" fill="#6E1B15"/>
<path id="rec_1_b" d="M1110.81 334H1076.18C1031.79 334 1083.81 414.805 995.81 414.805C907.809 414.805 1031.79 495.61 1076.18 495.61H1099.78C1144.17 495.61 1121.84 465.128 1121.84 420.5C1121.84 375.872 1159.84 334 1110.81 334Z" fill="#6E1B15"/>
<path id="rec_1_c" d="M1081.25 359.694C1052.6 314.999 1028 384.694 977.281 404.194C938.5 419.105 1013.26 484.999 1057.65 484.999C1102.04 484.999 1099.5 450.194 1161.62 404.194C1200.5 360.694 1100.5 387.694 1081.25 359.694Z" fill="#6E1B15"/>
</g>
<g id="rec2">
<path id="rec_2" d="M897.061 334H873.458C829.07 334 793.088 370.177 793.088 414.805C793.088 459.433 829.07 495.61 873.458 495.61H897.061C941.449 495.61 977.431 459.433 977.431 414.805C977.431 370.177 941.449 334 897.061 334Z" fill="#6E1B15"/>
<path id="rec_2_a" d="M872.4 322H848.797C804.409 322 751.27 340 808.709 402.805C832.58 432.25 772.527 493.75 816.915 493.75L872.4 483.61C916.788 483.61 952.77 447.433 952.77 402.805C952.77 358.177 916.788 322 872.4 322Z" fill="#6E1B15"/>
<path id="rec_2_b" d="M967.447 307L817.418 301C773.03 301 783.104 379.177 783.104 423.805C783.104 468.433 819.086 504.61 863.474 504.61L924.838 529.75C969.226 529.75 967.447 468.433 967.447 423.805C967.447 379.177 1011.84 307 967.447 307Z" fill="#6E1B15"/>
<path id="rec_2_c" d="M916.456 304.138L871.638 335.638C823.15 334.138 806.739 366.76 806.739 411.388C806.739 456.016 848.465 465.748 892.853 465.748L938.775 493.138C983.163 493.138 958.17 438.766 958.17 394.138C958.17 349.51 973.09 286.138 916.456 304.138Z" fill="#6E1B15"/>
</g>
<path id="rec_3" d="M884.765 491H792.235C766.699 491 746 511.818 746 537.5C746 563.182 766.699 584 792.235 584H884.765C910.301 584 931 563.182 931 537.5C931 511.818 910.301 491 884.765 491Z" fill="#6E1B15"/>
<path id="rec_4" d="M896.779 579H873.221C828.915 579 793 615.264 793 660C793 704.736 828.915 741 873.221 741H896.779C941.085 741 977 704.736 977 660C977 615.264 941.085 579 896.779 579Z" fill="#6E1B15"/>
<path id="rec_5" d="M1077.78 579H1054.22C1009.92 579 974 615.264 974 660C974 704.736 1009.92 741 1054.22 741H1077.78C1122.08 741 1158 704.736 1158 660C1158 615.264 1122.08 579 1077.78 579Z" fill="#6E1B15"/>
</g>
</svg>
