<svg id="casssa_logo"  class="casssa_logo"  width="500" height="480" viewBox="0 0 500 480" fill="none" xmlns="http://www.w3.org/2000/svg">

 <defs>
         <filter   height="200%" id="blur" width="200%" x="-50%" y="-50%">
          <feGaussianBlur in="SourceGraphic" stdDeviation="33"/>
         </filter>
         <filter 
       
         height="200%" id="main-blur" width="200%" x="-50%" y="-50%">
       
          <feGaussianBlur in="SourceGraphic" stdDeviation="12"/>
         </filter>
        </defs>

<g id="div1" class="moving-elements">
<g id="casssa">
<g filter="url(#rec_blur)" id="rec1">
<path  class="shapes s1" id="rec_1" d="M364.973 38.5496H341.37C321.127 38.5496 302.631 46.0742 288.5 58.4933C271.646 73.3054 261 95.0798 261 119.355C261 140.788 269.299 160.271 282.843 174.735C297.501 190.387 318.3 200.16 341.37 200.16H364.973C388.043 200.16 408.843 190.387 423.5 174.735C437.044 160.271 445.343 140.788 445.343 119.355C445.343 97.9216 437.044 78.4378 423.5 63.9744C408.843 48.3221 388.043 38.5496 364.973 38.5496Z" fill="#6E1B15"/>
<path  class="shapes morph" id="rec_1_a" d="M365.111 32.5496H339.889C318.255 32.5496 306.101 51.2056 291 64.5C272.989 80.356 254 93.0639 254 119.05C254 141.993 276.526 158.905 291 174.388C306.664 191.143 315.234 205.55 339.889 205.55H365.111C389.766 205.55 395.836 179.755 411.5 163C425.974 147.517 451 141.993 451 119.05C451 96.106 432.974 86.4827 418.5 71C402.836 54.2445 389.766 32.5496 365.111 32.5496Z" fill="#6E1B15"/>
<path  class="shapes morph" id="rec_1_b" d="M354.622 46.8993C332.271 46.8993 298.725 30.2097 283.122 43.8993C264.514 60.2266 283.122 91.659 283.122 118.417C283.122 142.043 271.546 173.557 286.5 189.5C302.683 206.754 335.273 185.321 360.745 185.321C386.217 185.321 423.317 195.754 439.5 178.5C454.454 162.557 439.5 142.043 439.5 118.417C439.5 94.7915 462.924 73.3146 447.97 57.3717C431.787 40.1181 380.095 46.8993 354.622 46.8993Z" fill="#6E1B15"/>
<path  class="shapes morph" id="rec_1_c" d="M365.026 33.1001H341.424C321.18 33.1001 308.684 44.681 294.553 57.1001C277.699 71.9122 261.053 89.6303 261.053 113.905C261.053 135.338 259.509 167.637 273.053 182.1C287.711 197.752 318.353 194.71 341.424 194.71H365.026C388.096 194.71 396.396 177.252 411.053 161.6C424.597 147.137 445.396 135.338 445.396 113.905C445.396 92.4721 448.597 61.0635 435.053 46.6001C420.396 30.9478 388.096 33.1001 365.026 33.1001Z" fill="#6E1B15"/>
</g>
<g filter="url(#rec_blur)" id="rec2">
<path  class="shapes " id="rec_2" d="M184.973 34.5496H161.371C141.127 34.5496 122.631 42.0742 108.5 54.4934C91.6461 69.3054 81.0001 91.0798 81.0001 115.355C81.0001 136.788 89.2994 156.271 102.843 170.735C117.501 186.387 138.3 196.16 161.371 196.16H184.973C208.043 196.16 228.843 186.387 243.5 170.735C257.044 156.271 265.343 136.788 265.343 115.355C265.343 93.9216 257.044 74.4378 243.5 59.9745C228.843 44.3221 208.043 34.5496 184.973 34.5496Z" fill="#6E1B15"/>
<path  class="shapes morph" id="rec_2_a" d="M185.111 32.5496H159.889C138.255 32.5496 126.101 51.2056 111 64.5C92.9888 80.356 74 93.0639 74 119.05C74 141.993 96.5262 158.905 111 174.388C126.664 191.143 135.234 205.55 159.889 205.55H185.111C209.766 205.55 215.836 179.755 231.5 163C245.974 147.517 271 141.993 271 119.05C271 96.106 252.974 86.4827 238.5 71C222.836 54.2445 209.766 32.5496 185.111 32.5496Z" fill="#6E1B15"/>
<path  class="shapes morph" id="rec_2_b" d="M174.622 46.8993C152.271 46.8993 118.725 30.2097 103.122 43.8993C84.5136 60.2266 103.122 91.659 103.122 118.417C103.122 142.043 91.5459 173.557 106.5 189.5C122.683 206.754 155.273 185.321 180.745 185.321C206.217 185.321 243.317 195.754 259.5 178.5C274.454 162.557 259.5 142.043 259.5 118.417C259.5 94.7915 282.924 73.3146 267.97 57.3717C251.787 40.1181 200.095 46.8993 174.622 46.8993Z" fill="#6E1B15"/>
<path  class="shapes morph" id="rec_2_c" d="M185.026 28.1001H161.424C141.18 28.1001 128.684 39.681 114.553 52.1001C97.6992 66.9122 81.0532 84.6303 81.0532 108.905C81.0532 130.338 79.5093 162.637 93.0532 177.1C107.711 192.752 138.353 189.71 161.424 189.71H185.026C208.096 189.71 216.396 172.252 231.053 156.6C244.597 142.137 265.396 130.338 265.396 108.905C265.396 87.4721 268.597 56.0635 255.053 41.6001C240.396 25.9478 208.096 28.1001 185.026 28.1001Z" fill="#6E1B15"/>
</g>
<g filter="url(#rec_blur)" id="rec3">
<path  class="shapes " id="rec_3" d="M172.765 194.55C147.229 194.55 144.567 194.55 126.5 194.55C108.432 194.55 105.77 194.55 80.2348 194.55C54.6992 194.55 33.9998 215.368 33.9998 241.05C33.9998 266.731 54.6992 287.55 80.2348 287.55C105.77 287.55 108.432 287.55 126.5 287.55C144.567 287.55 147.229 287.55 172.765 287.55C198.3 287.55 219 266.731 219 241.05C219 215.368 198.3 194.55 172.765 194.55Z" fill="#6E1B15"/>
<path  class="shapes morph" id="rec_3_a" d="M175.617 193C149.079 193 146.312 201.5 127.535 201.5C108.758 201.5 105.992 193 79.4532 193C52.9147 193 41 213.818 41 239.5C41 265.182 52.9147 286 79.4532 286C105.992 286 108.758 278 127.535 278C146.312 278 149.079 286 175.617 286C202.156 286 213 265.182 213 239.5C213 213.818 202.156 193 175.617 193Z" fill="#6E1B15"/>
<path  class="shapes morph" id="rec_3_b" d="M175.692 201.215C148.265 201.215 145.406 191 126 191C106.594 191 101.334 193.688 73.9074 193.688C46.4803 193.688 39 213.385 39 241C39 268.615 48.8809 278.634 76.308 278.634C103.735 278.634 106.594 291 126 291C145.406 291 148.265 281.86 175.692 281.86C203.119 281.86 213 268.615 213 241C213 213.385 203.119 201.215 175.692 201.215Z" fill="#6E1B15"/>
<path  class="shapes morph" id="rec_3_c" d="M171.472 194.477C145.894 194.477 143.228 182 125.131 182C107.034 182 104.368 194.477 78.7903 194.477C53.2129 194.477 45 214.28 45 238.709C45 263.138 53.2129 282.94 78.7903 282.94C104.368 282.94 107.034 299 125.131 299C143.228 299 145.894 282.94 171.472 282.94C197.049 282.94 207 263.138 207 238.709C207 214.28 197.049 194.477 171.472 194.477Z" fill="#6E1B15"/>
</g>
<g filter="url(#rec_blur)" id="rec4">
<path  class="shapes " id="rec_4" d="M184.973 283.55H161.371C141.127 283.55 122.631 291.074 108.5 303.493C91.6463 318.305 81.0003 340.08 81.0003 364.355C81.0003 385.788 89.2996 405.271 102.843 419.735C117.501 435.387 138.3 445.16 161.371 445.16H184.973C208.043 445.16 228.843 435.387 243.5 419.735C257.044 405.271 265.343 385.788 265.343 364.355C265.343 342.922 257.044 323.438 243.5 308.974C228.843 293.322 208.043 283.55 184.973 283.55Z" fill="#6E1B15"/>
<path  class="shapes morph" id="rec_4_a" d="M185.111 278H159.889C138.255 278 126.101 296.656 111 309.95C92.9888 325.806 74 338.514 74 364.5C74 387.444 96.5262 404.356 111 419.838C126.664 436.594 135.234 451 159.889 451H185.111C209.766 451 215.836 425.206 231.5 408.45C245.974 392.968 271 387.444 271 364.5C271 341.556 252.974 331.933 238.5 316.45C222.836 299.695 209.766 278 185.111 278Z" fill="#6E1B15"/>
<path  class="shapes morph" id="rec_4_b" d="M174.622 292.35C152.271 292.35 118.725 275.66 103.122 289.35C84.5136 305.677 103.122 337.109 103.122 363.868C103.122 387.493 91.5459 419.007 106.5 434.95C122.683 452.204 155.273 430.772 180.745 430.772C206.217 430.772 243.317 441.204 259.5 423.95C274.454 408.007 259.5 387.493 259.5 363.868C259.5 340.242 282.924 318.765 267.97 302.822C251.787 285.569 200.095 292.35 174.622 292.35Z" fill="#6E1B15"/>
<path  class="shapes morph" id="rec_4_c" d="M185.026 284.1H161.424C141.18 284.1 128.684 295.681 114.553 308.1C97.6992 322.912 81.0532 340.63 81.0532 364.905C81.0532 386.338 79.5093 418.637 93.0532 433.1C107.711 448.752 138.353 445.71 161.424 445.71H185.026C208.096 445.71 216.396 428.252 231.053 412.6C244.597 398.137 265.396 386.338 265.396 364.905C265.396 343.472 268.597 312.063 255.053 297.6C240.396 281.948 208.096 284.1 185.026 284.1Z" fill="#6E1B15"/>
</g>
<g filter="url(#rec_blur)" id="rec5">
<path  class="shapes " id="rec_5" d="M364.973 283.55H341.371C321.127 283.55 302.631 291.075 288.5 303.494C271.646 318.306 261 340.081 261 364.355C261 385.788 269.299 405.272 282.843 419.736C297.501 435.388 318.3 445.16 341.371 445.16H364.973C388.043 445.16 408.843 435.388 423.5 419.736C437.044 405.272 445.343 385.788 445.343 364.355C445.343 342.922 437.044 323.439 423.5 308.975C408.843 293.323 388.043 283.55 364.973 283.55Z" fill="#6E1B15"/>
<path  class="shapes morph" id="rec_5_a" d="M368.111 278H342.889C321.255 278 309.101 296.656 294 309.95C275.989 325.806 257 338.514 257 364.5C257 387.444 279.526 404.356 294 419.838C309.664 436.594 318.234 451 342.889 451H368.111C392.766 451 398.836 425.206 414.5 408.45C428.974 392.968 454 387.444 454 364.5C454 341.556 435.974 331.933 421.5 316.45C405.836 299.695 392.766 278 368.111 278Z" fill="#6E1B15"/>
<path  class="shapes morph" id="rec_5_b" d="M357.622 292.35C335.271 292.35 301.725 275.66 286.122 289.35C267.514 305.677 286.122 337.109 286.122 363.868C286.122 387.493 274.546 419.007 289.5 434.95C305.683 452.204 338.273 430.772 363.745 430.772C389.217 430.772 426.317 441.204 442.5 423.95C457.454 408.007 442.5 387.493 442.5 363.868C442.5 340.242 465.924 318.765 450.97 302.822C434.787 285.569 383.095 292.35 357.622 292.35Z" fill="#6E1B15"/>
<path  class="shapes morph" id="rec_5_c" d="M368.026 283.1H344.424C324.18 283.1 311.684 294.681 297.553 307.1C280.699 321.912 264.053 339.63 264.053 363.905C264.053 385.338 262.509 417.637 276.053 432.1C290.711 447.752 321.353 444.71 344.424 444.71H368.026C391.096 444.71 399.396 427.252 414.053 411.6C427.597 397.137 448.396 385.338 448.396 363.905C448.396 342.472 451.597 311.063 438.053 296.6C423.396 280.948 391.096 283.1 368.026 283.1Z" fill="#6E1B15"/>
</g>
</g>
</g>
</svg>
