<svg width="199" height="173" viewBox="0 0 199 173" fill="none" xmlns="http://www.w3.org/2000/svg">

 <defs>
         <filter   height="200%" id="blur" width="200%" x="-50%" y="-50%">
          <feGaussianBlur in="SourceGraphic" stdDeviation="33"/>
         </filter>
         <filter 
       
         height="200%" id="main-blur" width="200%" x="-50%" y="-50%">
       
          <feGaussianBlur in="SourceGraphic" stdDeviation="12"/>
         </filter>
        </defs>
<g id="Frame 4">
<g filter="url(#rec_blur)" id="rec4">
<path class="shapes " id="rec_4" d="M110.973 5.54962H87.3707C67.1269 5.54962 48.6315 13.0742 34.5003 25.4934C17.6463 40.3054 7.00025 62.0798 7.00025 86.3546C7.00025 107.788 15.2996 127.271 28.8435 141.735C43.5008 157.387 64.3004 167.16 87.3707 167.16H110.973C134.043 167.16 154.843 157.387 169.5 141.735C183.044 127.271 191.343 107.788 191.343 86.3546C191.343 64.9216 183.044 45.4378 169.5 30.9745C154.843 15.3221 134.043 5.54962 110.973 5.54962Z" fill="#6E1B15"/>
<path class="shapes morph" id="rec_4_a" d="M111.111 0H85.8885C64.2549 0 52.1015 18.656 37 31.9504C18.9888 47.8064 0 60.5144 0 86.5C0 109.444 22.5262 126.356 37 141.838C52.6637 158.594 61.2343 173 85.8885 173H111.111C135.766 173 141.836 147.206 157.5 130.45C171.974 114.968 197 109.444 197 86.5C197 63.5564 178.974 53.9331 164.5 38.4504C148.836 21.6949 135.766 0 111.111 0Z" fill="#6E1B15"/>
<path class="shapes morph" id="rec_4_b" d="M100.622 14.3497C78.2709 14.3497 44.725 -2.33991 29.1224 11.3497C10.5136 27.677 29.1224 59.1094 29.1224 85.8675C29.1224 109.493 17.5459 141.007 32.5 156.95C48.6834 174.204 81.2725 152.772 106.745 152.772C132.217 152.772 169.317 163.204 185.5 145.95C200.454 130.007 185.5 109.493 185.5 85.8675C185.5 62.2419 208.924 40.765 193.97 24.8221C177.787 7.56851 126.095 14.3497 100.622 14.3497Z" fill="#6E1B15"/>
<path class="shapes morph" id="rec_4_c" d="M111.026 6.10014H87.4236C67.1799 6.10014 54.6845 17.681 40.5532 30.1001C23.6992 44.9122 7.05322 62.6303 7.05322 86.9051C7.05322 108.338 5.50932 140.637 19.0532 155.1C33.7105 170.752 64.3534 167.71 87.4236 167.71H111.026C134.096 167.71 142.396 150.252 157.053 134.6C170.597 120.137 191.396 108.338 191.396 86.9051C191.396 65.4721 194.597 34.0635 181.053 19.6001C166.396 3.94781 134.096 6.10014 111.026 6.10014Z" fill="#6E1B15"/>
</g>
</g>
</svg>
