<svg width="185" height="117" viewBox="0 0 185 117" fill="none" xmlns="http://www.w3.org/2000/svg">

 <defs>
         <filter   height="200%" id="blur" width="200%" x="-50%" y="-50%">
          <feGaussianBlur in="SourceGraphic" stdDeviation="33"/>
         </filter>
         <filter 
       
         height="200%" id="main-blur" width="200%" x="-50%" y="-50%">
       
          <feGaussianBlur in="SourceGraphic" stdDeviation="12"/>
         </filter>
        </defs>
<g id="Frame 3">
<g id="rec3">
<path class="shapes " id="rec_3" d="M138.765 12.5496C113.229 12.5496 110.567 12.5496 92.4997 12.5496C74.4322 12.5496 71.7704 12.5496 46.2348 12.5496C20.6992 12.5496 -0.000244141 33.3677 -0.000244141 59.0496C-0.000244141 84.7315 20.6992 105.55 46.2348 105.55C71.7704 105.55 74.4322 105.55 92.4997 105.55C110.567 105.55 113.229 105.55 138.765 105.55C164.3 105.55 185 84.7315 185 59.0496C185 33.3677 164.3 12.5496 138.765 12.5496Z" fill="#6E1B15"/>
<path class="shapes morph" id="rec_3_a" d="M141.617 11C115.079 11 112.312 19.5 93.5352 19.5C74.758 19.5 71.9917 11 45.4532 11C18.9147 11 7 31.8181 7 57.5C7 83.1819 18.9147 104 45.4532 104C71.9917 104 74.758 96 93.5352 96C112.312 96 115.079 104 141.617 104C168.156 104 179 83.1819 179 57.5C179 31.8181 168.156 11 141.617 11Z" fill="#6E1B15"/>
<path class="shapes morph" id="rec_3_b" d="M141.692 19.2151C114.265 19.2151 111.406 9 92 9C72.5941 9 67.3345 11.6882 39.9074 11.6882C12.4803 11.6882 5 31.385 5 59C5 86.615 14.8809 96.6344 42.308 96.6344C69.7351 96.6344 72.5941 109 92 109C111.406 109 114.265 99.8602 141.692 99.8602C169.119 99.8602 179 86.615 179 59C179 31.385 169.119 19.2151 141.692 19.2151Z" fill="#6E1B15"/>
<path class="shapes morph" id="rec_3_c" d="M137.472 12.477C111.894 12.477 109.228 0 91.131 0C73.0339 0 70.3677 12.477 44.7903 12.477C19.2129 12.477 11 32.2796 11 56.7087C11 81.1379 19.2129 100.94 44.7903 100.94C70.3677 100.94 73.0339 117 91.131 117C109.228 117 111.894 100.94 137.472 100.94C163.049 100.94 173 81.1379 173 56.7087C173 32.2796 163.049 12.477 137.472 12.477Z" fill="#6E1B15"/>
</g>
</g>
</svg>
