<svg width="199" height="173" viewBox="0 0 199 173" fill="none" xmlns="http://www.w3.org/2000/svg">

 <defs>
         <filter   height="200%" id="blur" width="200%" x="-50%" y="-50%">
          <feGaussianBlur in="SourceGraphic" stdDeviation="33"/>
         </filter>
         <filter 
       
         height="200%" id="main-blur" width="200%" x="-50%" y="-50%">
       
          <feGaussianBlur in="SourceGraphic" stdDeviation="12"/>
         </filter>
        </defs>
<g id="Frame 5">
<g filter="url(#rec_blur)" id="rec5">
<path class="shapes " id="rec_5" d="M107.973 5.55042H84.3705C64.1268 5.55042 45.6314 13.075 31.5001 25.4942C14.6461 40.3062 4.00012 62.0806 4.00012 86.3554C4.00012 107.788 12.2994 127.272 25.8433 141.736C40.5007 157.388 61.3003 167.16 84.3705 167.16H107.973C131.043 167.16 151.843 157.388 166.5 141.736C180.044 127.272 188.343 107.788 188.343 86.3554C188.343 64.9224 180.044 45.4386 166.5 30.9752C151.843 15.3229 131.043 5.55042 107.973 5.55042Z" fill="#6E1B15"/>
<path class="shapes morph" id="rec_5_a" d="M111.111 0H85.8885C64.2549 0 52.1015 18.656 37 31.9504C18.9888 47.8064 0 60.5144 0 86.5C0 109.444 22.5262 126.356 37 141.838C52.6637 158.594 61.2343 173 85.8885 173H111.111C135.766 173 141.836 147.206 157.5 130.45C171.974 114.968 197 109.444 197 86.5C197 63.5564 178.974 53.9331 164.5 38.4504C148.836 21.6949 135.766 0 111.111 0Z" fill="#6E1B15"/>
<path class="shapes morph" id="rec_5_b" d="M100.622 14.3497C78.2709 14.3497 44.725 -2.33991 29.1224 11.3497C10.5136 27.677 29.1224 59.1094 29.1224 85.8675C29.1224 109.493 17.5459 141.007 32.5 156.95C48.6834 174.204 81.2725 152.772 106.745 152.772C132.217 152.772 169.317 163.204 185.5 145.95C200.454 130.007 185.5 109.493 185.5 85.8675C185.5 62.2419 208.924 40.765 193.97 24.8221C177.787 7.56851 126.095 14.3497 100.622 14.3497Z" fill="#6E1B15"/>
<path class="shapes morph" id="rec_5_c" d="M111.026 5.10014H87.4236C67.1799 5.10014 54.6845 16.681 40.5532 29.1001C23.6992 43.9122 7.05322 61.6303 7.05322 85.9051C7.05322 107.338 5.50932 139.637 19.0532 154.1C33.7105 169.752 64.3534 166.71 87.4236 166.71H111.026C134.096 166.71 142.396 149.252 157.053 133.6C170.597 119.137 191.396 107.338 191.396 85.9051C191.396 64.4721 194.597 33.0635 181.053 18.6001C166.396 2.94781 134.096 5.10014 111.026 5.10014Z" fill="#6E1B15"/>
</g>
</g>
</svg>
