<svg width="199" height="178" viewBox="0 0 199 178" fill="none" xmlns="http://www.w3.org/2000/svg">

 <defs>
         <filter   height="200%" id="blur" width="200%" x="-50%" y="-50%">
          <feGaussianBlur in="SourceGraphic" stdDeviation="33"/>
         </filter>
         <filter 
       
         height="200%" id="main-blur" width="200%" x="-50%" y="-50%">
       
          <feGaussianBlur in="SourceGraphic" stdDeviation="12"/>
         </filter>
        </defs>
<g id="Frame 2">
<g filter="url(#rec_blur)" id="rec2">
<path class="shapes " id="rec_2" d="M110.973 6.54963H87.3705C67.1268 6.54963 48.6314 14.0742 34.5001 26.4934C17.6461 41.3054 7.00013 63.0798 7.00013 87.3546C7.00013 108.788 15.2994 128.271 28.8433 142.735C43.5007 158.387 64.3003 168.16 87.3705 168.16H110.973C134.043 168.16 154.843 158.387 169.5 142.735C183.044 128.271 191.343 108.788 191.343 87.3546C191.343 65.9216 183.044 46.4378 169.5 31.9745C154.843 16.3221 134.043 6.54963 110.973 6.54963Z" fill="#6E1B15"/>
<path class="shapes morph" id="rec_2_a" d="M111.111 4.54959H85.8885C64.2549 4.54959 52.1015 23.2056 37 36.5C18.9888 52.356 0 65.0639 0 91.0496C0 113.993 22.5262 130.905 37 146.388C52.6637 163.143 61.2343 177.55 85.8885 177.55H111.111C135.766 177.55 141.836 151.755 157.5 135C171.974 119.517 197 113.993 197 91.0496C197 68.106 178.974 58.4827 164.5 43C148.836 26.2445 135.766 4.54959 111.111 4.54959Z" fill="#6E1B15"/>
<path class="shapes morph" id="rec_2_b" d="M100.622 18.8993C78.2709 18.8993 44.725 2.20969 29.1224 15.8993C10.5136 32.2266 29.1224 63.659 29.1224 90.4171C29.1224 114.043 17.5459 145.557 32.5 161.5C48.6834 178.754 81.2725 157.321 106.745 157.321C132.217 157.321 169.317 167.754 185.5 150.5C200.454 134.557 185.5 114.043 185.5 90.4171C185.5 66.7915 208.924 45.3146 193.97 29.3717C177.787 12.1181 126.095 18.8993 100.622 18.8993Z" fill="#6E1B15"/>
<path class="shapes morph" id="rec_2_c" d="M111.026 0.100138H87.4236C67.1799 0.100138 54.6845 11.681 40.5532 24.1001C23.6992 38.9122 7.05322 56.6303 7.05322 80.9051C7.05322 102.338 5.50932 134.637 19.0532 149.1C33.7105 164.752 64.3534 161.71 87.4236 161.71H111.026C134.096 161.71 142.396 144.252 157.053 128.6C170.597 114.137 191.396 102.338 191.396 80.9051C191.396 59.4721 194.597 28.0635 181.053 13.6001C166.396 -2.05219 134.096 0.100138 111.026 0.100138Z" fill="#6E1B15"/>
</g>
</g>
</svg>
