<svg width="199" height="174" viewBox="0 0 199 174" fill="none" xmlns="http://www.w3.org/2000/svg">

 <defs>
         <filter   height="200%" id="blur" width="200%" x="-50%" y="-50%">
          <feGaussianBlur in="SourceGraphic" stdDeviation="33"/>
         </filter>
         <filter 
       
         height="200%" id="main-blur" width="200%" x="-50%" y="-50%">
       
          <feGaussianBlur in="SourceGraphic" stdDeviation="12"/>
         </filter>
        </defs>
<g id="Frame 1">
<g filter="url(#rec_blur)" id="rec1">
<path class="shapes s1" id="rec_1" d="M110.973 6.54959H87.3704C67.1267 6.54959 48.6312 14.0742 34.5 26.4933C17.646 41.3054 7 63.0798 7 87.3546C7 108.788 15.2993 128.271 28.8432 142.735C43.5005 158.387 64.3002 168.16 87.3704 168.16H110.973C134.043 168.16 154.843 158.387 169.5 142.735C183.044 128.271 191.343 108.788 191.343 87.3546C191.343 65.9216 183.044 46.4378 169.5 31.9744C154.843 16.3221 134.043 6.54959 110.973 6.54959Z" fill="#6E1B15"/>
<path class="shapes morph" id="rec_1_a" d="M111.111 0.549591H85.8885C64.2549 0.549591 52.1015 19.2056 37 32.5C18.9888 48.356 0 61.0639 0 87.0496C0 109.993 22.5262 126.905 37 142.388C52.6637 159.143 61.2343 173.55 85.8885 173.55H111.111C135.766 173.55 141.836 147.755 157.5 131C171.974 115.517 197 109.993 197 87.0496C197 64.106 178.974 54.4827 164.5 39C148.836 22.2445 135.766 0.549591 111.111 0.549591Z" fill="#6E1B15"/>
<path class="shapes morph" id="rec_1_b" d="M100.622 14.8993C78.2709 14.8993 44.725 -1.79031 29.1224 11.8993C10.5136 28.2266 29.1224 59.659 29.1224 86.4171C29.1224 110.043 17.5459 141.557 32.5 157.5C48.6834 174.754 81.2725 153.321 106.745 153.321C132.217 153.321 169.317 163.754 185.5 146.5C200.454 130.557 185.5 110.043 185.5 86.4171C185.5 62.7915 208.924 41.3146 193.97 25.3717C177.787 8.11811 126.095 14.8993 100.622 14.8993Z" fill="#6E1B15"/>
<path class="shapes morph" id="rec_1_c" d="M111.026 1.10014H87.4236C67.1799 1.10014 54.6845 12.681 40.5532 25.1001C23.6992 39.9122 7.05322 57.6303 7.05322 81.9051C7.05322 103.338 5.50932 135.637 19.0532 150.1C33.7105 165.752 64.3534 162.71 87.4236 162.71H111.026C134.096 162.71 142.396 145.252 157.053 129.6C170.597 115.137 191.396 103.338 191.396 81.9051C191.396 60.4721 194.597 29.0635 181.053 14.6001C166.396 -1.05219 134.096 1.10014 111.026 1.10014Z" fill="#6E1B15"/>
</g>
</g>
</svg>
