<svg id="casssa_logo" class="casssa_logo" width="1366" height="785" viewBox="0 0 1366 785" fill="none" xmlns="http://www.w3.org/2000/svg">

                        <defs>
                            <filter height="200%" id="blur" width="200%" x="-50%" y="-50%">
                                <feGaussianBlur in="SourceGraphic" stdDeviation="33" />
                            </filter>
                            <filter height="200%" id="main-blur" width="200%" x="-50%" y="-50%">

                                <feGaussianBlur in="SourceGraphic" stdDeviation="12" />
                            </filter>
                        </defs>

<g class="moving-elements">
<g filter="url(#rec_blur)" id="rec1">
<path class="shapes s"  id="rec_1" d="M780.16 229.579H760.966C744.503 229.579 729.462 235.699 717.969 245.798C704.263 257.844 695.605 275.552 695.605 295.293C695.605 312.723 702.355 328.568 713.369 340.33C725.289 353.059 742.204 361.007 760.966 361.007H780.16C798.922 361.007 815.837 353.059 827.757 340.33C838.771 328.568 845.52 312.723 845.52 295.293C845.52 277.863 838.771 262.018 827.757 250.256C815.837 237.527 798.922 229.579 780.16 229.579Z" fill="#6E1B15"/>
<path class="shapes morph"  id="rec_1_a" d="M780.273 224.7H759.761C742.167 224.7 732.284 239.872 720.003 250.683C705.355 263.578 689.913 273.913 689.913 295.045C689.913 313.704 708.232 327.457 720.003 340.048C732.741 353.675 739.711 365.39 759.761 365.39H780.273C800.323 365.39 805.26 344.413 817.998 330.787C829.768 318.196 850.121 313.704 850.121 295.045C850.121 276.386 835.461 268.56 823.691 255.969C810.952 242.343 800.323 224.7 780.273 224.7Z" fill="#6E1B15"/>
<path class="shapes morph"  id="rec_1_b" d="M771.743 236.37C753.566 236.37 726.285 222.797 713.596 233.93C698.463 247.208 713.596 272.77 713.596 294.531C713.596 313.744 704.182 339.373 716.343 352.338C729.504 366.369 756.007 348.94 776.722 348.94C797.437 348.94 827.608 357.424 840.769 343.392C852.93 330.427 840.769 313.744 840.769 294.531C840.769 275.317 859.818 257.852 847.657 244.886C834.496 230.855 792.458 236.37 771.743 236.37Z" fill="#6E1B15"/>
<path class="shapes morph"  id="rec_1_c" d="M780.203 225.148H761.009C744.546 225.148 734.384 234.566 722.892 244.665C709.186 256.711 695.649 271.12 695.649 290.861C695.649 308.292 694.393 334.558 705.408 346.32C717.327 359.049 742.247 356.575 761.009 356.575H780.203C798.965 356.575 805.715 342.378 817.634 329.649C828.649 317.887 845.564 308.292 845.564 290.861C845.564 273.431 848.167 247.889 837.152 236.126C825.232 223.397 798.965 225.148 780.203 225.148Z" fill="#6E1B15"/>
</g>
<g id="rec2">
<path class="shapes "  id="rec_2" d="M633.777 226.326H614.583C598.12 226.326 583.079 232.446 571.587 242.545C557.88 254.591 549.222 272.299 549.222 292.04C549.222 309.47 555.972 325.315 566.986 337.077C578.906 349.807 595.821 357.754 614.583 357.754H633.777C652.539 357.754 669.454 349.807 681.374 337.077C692.388 325.315 699.138 309.47 699.138 292.04C699.138 274.61 692.388 258.765 681.374 247.003C669.454 234.274 652.539 226.326 633.777 226.326Z" fill="#6E1B15"/>
<path class="shapes morph"  id="rec_2_a" d="M633.89 224.7H613.378C595.784 224.7 585.901 239.872 573.62 250.683C558.972 263.578 543.53 273.913 543.53 295.045C543.53 313.704 561.849 327.457 573.62 340.048C586.358 353.675 593.328 365.39 613.378 365.39H633.89C653.94 365.39 658.877 344.413 671.615 330.787C683.385 318.196 703.738 313.704 703.738 295.045C703.738 276.386 689.078 268.56 677.308 255.969C664.569 242.343 653.94 224.7 633.89 224.7Z" fill="#6E1B15"/>
<path class="shapes morph"  id="rec_2_b" d="M625.36 236.37C607.183 236.37 579.902 222.797 567.213 233.93C552.08 247.208 567.213 272.77 567.213 294.531C567.213 313.744 557.799 339.373 569.96 352.338C583.121 366.369 609.624 348.94 630.339 348.94C651.054 348.94 681.225 357.424 694.386 343.392C706.547 330.427 694.386 313.744 694.386 294.531C694.386 275.317 713.435 257.852 701.274 244.886C688.113 230.855 646.075 236.37 625.36 236.37Z" fill="#6E1B15"/>
<path class="shapes morph"  id="rec_2_c" d="M633.82 221.081H614.626C598.163 221.081 588.001 230.499 576.509 240.599C562.803 252.645 549.266 267.054 549.266 286.795C549.266 304.225 548.01 330.492 559.025 342.254C570.944 354.983 595.864 352.509 614.626 352.509H633.82C652.582 352.509 659.332 338.312 671.251 325.583C682.266 313.82 699.181 304.225 699.181 286.795C699.181 269.365 701.784 243.822 690.769 232.06C678.849 219.331 652.582 221.081 633.82 221.081Z" fill="#6E1B15"/>
</g>
<g filter="url(#rec_blur)" id="rec3">
<path class="shapes "  id="rec_3" d="M623.849 356.445C603.083 356.445 600.918 356.445 586.225 356.445C571.531 356.445 569.367 356.445 548.6 356.445C527.834 356.445 511 373.375 511 394.26C511 415.146 527.834 432.076 548.6 432.076C569.367 432.076 571.531 432.076 586.225 432.076C600.918 432.076 603.083 432.076 623.849 432.076C644.616 432.076 661.449 415.146 661.449 394.26C661.449 373.375 644.616 356.445 623.849 356.445Z" fill="#6E1B15"/>
<path class="shapes morph"  id="rec_3_a" d="M626.169 355.184C604.587 355.184 602.337 362.097 587.067 362.097C571.796 362.097 569.547 355.184 547.964 355.184C526.382 355.184 516.693 372.114 516.693 393C516.693 413.886 526.382 430.816 547.964 430.816C569.547 430.816 571.796 424.31 587.067 424.31C602.337 424.31 604.587 430.816 626.169 430.816C647.751 430.816 656.57 413.886 656.57 393C656.57 372.114 647.751 355.184 626.169 355.184Z" fill="#6E1B15"/>
<path class="shapes morph"  id="rec_3_b" d="M626.23 361.865C603.925 361.865 601.6 353.558 585.818 353.558C570.037 353.558 565.759 355.744 543.454 355.744C521.15 355.744 515.066 371.762 515.066 394.22C515.066 416.677 523.102 424.826 545.407 424.826C567.711 424.826 570.037 434.882 585.818 434.882C601.6 434.882 603.925 427.449 626.23 427.449C648.534 427.449 656.57 416.677 656.57 394.22C656.57 371.762 648.534 361.865 626.23 361.865Z" fill="#6E1B15"/>
<path class="shapes morph"  id="rec_3_c" d="M622.798 356.386C601.997 356.386 599.829 346.239 585.112 346.239C570.394 346.239 568.226 356.386 547.425 356.386C526.625 356.386 519.946 372.49 519.946 392.357C519.946 412.223 526.625 428.327 547.425 428.327C568.226 428.327 570.394 441.388 585.112 441.388C599.829 441.388 601.997 428.327 622.798 428.327C643.598 428.327 651.691 412.223 651.691 392.357C651.691 372.49 643.598 356.386 622.798 356.386Z" fill="#6E1B15"/>
</g>
<g filter="url(#rec_blur)" id="rec4">
<path class="shapes "  id="rec_4" d="M633.777 428.823H614.583C598.12 428.823 583.079 434.942 571.587 445.042C557.88 457.088 549.223 474.795 549.223 494.537C549.223 511.967 555.972 527.812 566.986 539.574C578.906 552.303 595.821 560.25 614.583 560.25H633.777C652.539 560.25 669.454 552.303 681.374 539.574C692.388 527.812 699.138 511.967 699.138 494.537C699.138 477.106 692.388 461.261 681.374 449.499C669.454 436.77 652.539 428.823 633.777 428.823Z" fill="#6E1B15"/>
<path class="shapes morph"  id="rec_4_a" d="M633.89 424.31H613.378C595.784 424.31 585.901 439.481 573.62 450.293C558.972 463.188 543.53 473.522 543.53 494.655C543.53 513.313 561.849 527.067 573.62 539.658C586.358 553.284 593.328 565 613.378 565H633.89C653.94 565 658.877 544.023 671.615 530.397C683.385 517.806 703.738 513.313 703.738 494.655C703.738 475.996 689.078 468.17 677.308 455.579C664.569 441.953 653.94 424.31 633.89 424.31Z" fill="#6E1B15"/>
<path class="shapes morph"  id="rec_4_b" d="M625.36 435.979C607.183 435.979 579.902 422.407 567.213 433.54C552.08 446.818 567.213 472.38 567.213 494.14C567.213 513.354 557.799 538.982 569.96 551.948C583.121 565.979 609.624 548.549 630.339 548.549C651.054 548.549 681.225 557.033 694.386 543.002C706.547 530.037 694.386 513.354 694.386 494.14C694.386 474.927 713.435 457.461 701.274 444.496C688.113 430.465 646.075 435.979 625.36 435.979Z" fill="#6E1B15"/>
<path class="shapes morph"  id="rec_4_c" d="M633.82 429.271H614.626C598.163 429.271 588.001 438.689 576.509 448.788C562.803 460.834 549.266 475.243 549.266 494.984C549.266 512.414 548.01 538.681 559.025 550.443C570.944 563.172 595.864 560.698 614.626 560.698H633.82C652.582 560.698 659.332 546.501 671.251 533.772C682.266 522.01 699.181 512.414 699.181 494.984C699.181 477.554 701.784 452.011 690.769 440.249C678.849 427.52 652.582 429.271 633.82 429.271Z" fill="#6E1B15"/>
</g>
<g filter="url(#rec_blur)" id="rec5">
<path class="shapes "  id="rec_5" d="M780.16 428.824H760.966C744.503 428.824 729.462 434.943 717.97 445.043C704.263 457.088 695.606 474.796 695.606 494.537C695.606 511.967 702.355 527.812 713.369 539.575C725.289 552.304 742.204 560.251 760.966 560.251H780.16C798.922 560.251 815.837 552.304 827.757 539.575C838.771 527.812 845.521 511.967 845.521 494.537C845.521 477.107 838.771 461.262 827.757 449.5C815.837 436.771 798.922 428.824 780.16 428.824Z" fill="#6E1B15"/>
<path class="shapes morph"  id="rec_5_a" d="M782.713 424.31H762.2C744.607 424.31 734.723 439.481 722.442 450.293C707.795 463.188 692.352 473.522 692.352 494.655C692.352 513.313 710.672 527.067 722.442 539.658C735.181 553.284 742.151 565 762.2 565H782.713C802.762 565 807.699 544.023 820.438 530.397C832.208 517.806 852.561 513.313 852.561 494.655C852.561 475.996 837.901 468.17 826.13 455.579C813.392 441.953 802.762 424.31 782.713 424.31Z" fill="#6E1B15"/>
<path class="shapes morph"  id="rec_5_b" d="M774.183 435.979C756.005 435.979 728.725 422.407 716.036 433.54C700.903 446.818 716.036 472.38 716.036 494.14C716.036 513.354 706.621 538.982 718.783 551.948C731.944 565.979 758.446 548.549 779.162 548.549C799.877 548.549 830.047 557.033 843.208 543.002C855.37 530.037 843.208 513.354 843.208 494.14C843.208 474.927 862.258 457.461 850.097 444.496C836.936 430.465 794.898 435.979 774.183 435.979Z" fill="#6E1B15"/>
<path class="shapes morph"  id="rec_5_c" d="M782.643 428.457H763.449C746.986 428.457 736.824 437.875 725.332 447.975C711.626 460.021 698.088 474.43 698.088 494.171C698.088 511.601 696.833 537.868 707.847 549.63C719.767 562.359 744.687 559.885 763.449 559.885H782.643C801.405 559.885 808.154 545.688 820.074 532.958C831.089 521.196 848.003 511.601 848.003 494.171C848.003 476.741 850.606 451.198 839.592 439.436C827.672 426.707 801.405 428.457 782.643 428.457Z" fill="#6E1B15"/>
</g>
</g>
</svg>
