<svg id="casssa_logo" class="casssa_logo" width="1366" height="785" viewBox="0 0 1366 785" fill="none" xmlns="http://www.w3.org/2000/svg">

 <defs>
                        <filter height="200%" id="blur" width="200%" x="-50%" y="-50%">
                            <feGaussianBlur in="SourceGraphic" stdDeviation="33" />
                        </filter>
                        <filter height="200%" id="main-blur" width="200%" x="-50%" y="-50%">

                            <feGaussianBlur in="SourceGraphic" stdDeviation="12" />
                        </filter>
                    </defs>

<g  class="moving-elements">
<g filter="url(#rec_blur)" id="rec1">
<path class="shapes s1" id="rec_1" d="M748.405 283.75H735.54C724.506 283.75 714.424 287.852 706.722 294.621C697.535 302.695 691.732 314.564 691.732 327.795C691.732 339.478 696.256 350.098 703.638 357.981C711.628 366.513 722.965 371.84 735.54 371.84H748.405C760.98 371.84 772.317 366.513 780.307 357.981C787.689 350.098 792.213 339.478 792.213 327.795C792.213 316.112 787.689 305.492 780.307 297.609C772.317 289.077 760.98 283.75 748.405 283.75Z" fill="#6E1B15"/>
<path class="shapes morph" id="rec_1_a" d="M748.481 280.48H734.732C722.94 280.48 716.316 290.649 708.084 297.895C698.267 306.538 687.917 313.465 687.917 327.629C687.917 340.135 700.195 349.353 708.084 357.792C716.622 366.925 721.294 374.778 734.732 374.778H748.481C761.919 374.778 765.228 360.718 773.766 351.585C781.655 343.146 795.296 340.135 795.296 327.629C795.296 315.123 785.471 309.877 777.581 301.438C769.044 292.305 761.919 280.48 748.481 280.48Z" fill="#6E1B15"/>
<path class="shapes morph" id="rec_1_b" d="M742.763 288.302C730.58 288.302 712.295 279.204 703.791 286.666C693.647 295.566 703.791 312.699 703.791 327.284C703.791 340.162 697.48 357.34 705.632 366.03C714.453 375.434 732.216 363.752 746.101 363.752C759.985 363.752 780.207 369.438 789.028 360.034C797.179 351.344 789.028 340.162 789.028 327.284C789.028 314.406 801.796 302.7 793.645 294.01C784.824 284.605 756.648 288.302 742.763 288.302Z" fill="#6E1B15"/>
<path class="shapes morph" id="rec_1_c" d="M748.434 280.78H735.569C724.535 280.78 717.724 287.092 710.021 293.862C700.834 301.935 691.761 311.593 691.761 324.825C691.761 336.507 690.92 354.113 698.302 361.996C706.291 370.528 722.994 368.87 735.569 368.87H748.434C761.009 368.87 765.533 359.354 773.522 350.822C780.905 342.938 792.242 336.507 792.242 324.825C792.242 313.142 793.987 296.022 786.604 288.138C778.615 279.607 761.009 280.78 748.434 280.78Z" fill="#6E1B15"/>
</g>
<g filter="url(#rec_blur)" id="rec2">
<path class="shapes " id="rec_2" d="M650.292 281.57H637.427C626.392 281.57 616.311 285.672 608.608 292.441C599.422 300.515 593.619 312.383 593.619 325.615C593.619 337.297 598.142 347.918 605.525 355.801C613.514 364.333 624.852 369.66 637.427 369.66H650.292C662.867 369.66 674.204 364.333 682.193 355.801C689.576 347.918 694.1 337.297 694.1 325.615C694.1 313.932 689.576 303.312 682.193 295.428C674.204 286.897 662.867 281.57 650.292 281.57Z" fill="#6E1B15"/>
<path class="shapes morph" id="rec_2_a" d="M650.367 280.48H636.619C624.827 280.48 618.202 290.649 609.971 297.895C600.153 306.538 589.803 313.465 589.803 327.629C589.803 340.135 602.082 349.353 609.971 357.792C618.509 366.925 623.18 374.778 636.619 374.778H650.367C663.806 374.778 667.115 360.718 675.652 351.585C683.542 343.146 697.183 340.135 697.183 327.629C697.183 315.123 687.357 309.877 679.468 301.438C670.93 292.305 663.806 280.48 650.367 280.48Z" fill="#6E1B15"/>
<path class="shapes morph" id="rec_2_b" d="M644.65 288.302C632.467 288.302 614.182 279.204 605.677 286.666C595.534 295.566 605.677 312.699 605.677 327.284C605.677 340.162 599.367 357.34 607.518 366.03C616.339 375.434 634.103 363.752 647.987 363.752C661.871 363.752 682.093 369.438 690.915 360.034C699.066 351.344 690.915 340.162 690.915 327.284C690.915 314.406 703.683 302.7 695.531 294.01C686.71 284.605 658.534 288.302 644.65 288.302Z" fill="#6E1B15"/>
<path class="shapes morph" id="rec_2_c" d="M650.321 278.055H637.456C626.421 278.055 619.61 284.367 611.908 291.136C602.721 299.21 593.648 308.868 593.648 322.099C593.648 333.782 592.806 351.387 600.189 359.271C608.178 367.802 624.881 366.144 637.456 366.144H650.321C662.896 366.144 667.42 356.628 675.409 348.097C682.791 340.213 694.128 333.782 694.128 322.099C694.128 310.417 695.873 293.297 688.491 285.413C680.501 276.881 662.896 278.055 650.321 278.055Z" fill="#6E1B15"/>
</g>
<g filter="url(#rec_blur)" id="rec3">
<path class="shapes " id="rec_3" d="M643.637 368.782C629.718 368.782 628.268 368.782 618.419 368.782C608.571 368.782 607.12 368.782 593.202 368.782C579.283 368.782 568 380.129 568 394.128C568 408.127 579.283 419.474 593.202 419.474C607.12 419.474 608.571 419.474 618.419 419.474C628.268 419.474 629.718 419.474 643.637 419.474C657.556 419.474 668.839 408.127 668.839 394.128C668.839 380.129 657.556 368.782 643.637 368.782Z" fill="#6E1B15"/>
<path class="shapes morph" id="rec_3_a" d="M645.192 367.937C630.727 367.937 629.219 372.571 618.984 372.571C608.749 372.571 607.241 367.937 592.776 367.937C578.31 367.937 571.816 379.285 571.816 393.283C571.816 407.282 578.31 418.629 592.776 418.629C607.241 418.629 608.749 414.269 618.984 414.269C629.219 414.269 630.727 418.629 645.192 418.629C659.658 418.629 665.569 407.282 665.569 393.283C665.569 379.285 659.658 367.937 645.192 367.937Z" fill="#6E1B15"/>
<path class="shapes morph" id="rec_3_b" d="M645.233 372.415C630.283 372.415 628.725 366.847 618.147 366.847C607.569 366.847 604.702 368.312 589.753 368.312C574.803 368.312 570.726 379.049 570.726 394.101C570.726 409.153 576.111 414.615 591.061 414.615C606.011 414.615 607.569 421.355 618.147 421.355C628.725 421.355 630.283 416.373 645.233 416.373C660.183 416.373 665.569 409.153 665.569 394.101C665.569 379.049 660.183 372.415 645.233 372.415Z" fill="#6E1B15"/>
<path class="shapes morph" id="rec_3_c" d="M642.933 368.742C628.991 368.742 627.538 361.942 617.673 361.942C607.809 361.942 606.356 368.742 592.414 368.742C578.473 368.742 573.996 379.536 573.996 392.852C573.996 406.168 578.473 416.962 592.414 416.962C606.356 416.962 607.809 425.715 617.673 425.715C627.538 425.715 628.991 416.962 642.933 416.962C656.874 416.962 662.298 406.168 662.298 392.852C662.298 379.536 656.874 368.742 642.933 368.742Z" fill="#6E1B15"/>
</g>
<g filter="url(#rec_blur)" id="rec4">
<path class="shapes " id="rec_4" d="M650.292 417.294H637.427C626.392 417.294 616.311 421.395 608.608 428.165C599.422 436.238 593.619 448.107 593.619 461.338C593.619 473.021 598.143 483.641 605.525 491.525C613.514 500.056 624.852 505.383 637.427 505.383H650.292C662.867 505.383 674.204 500.056 682.193 491.525C689.576 483.641 694.1 473.021 694.1 461.338C694.1 449.656 689.576 439.036 682.193 431.152C674.204 422.62 662.867 417.294 650.292 417.294Z" fill="#6E1B15"/>
<path class="shapes morph" id="rec_4_a" d="M650.367 414.269H636.619C624.827 414.269 618.202 424.438 609.971 431.684C600.153 440.327 589.803 447.254 589.803 461.418C589.803 473.924 602.082 483.142 609.971 491.581C618.509 500.714 623.18 508.567 636.619 508.567H650.367C663.806 508.567 667.115 494.507 675.652 485.374C683.542 476.935 697.183 473.924 697.183 461.418C697.183 448.912 687.357 443.666 679.468 435.227C670.93 426.094 663.806 414.269 650.367 414.269Z" fill="#6E1B15"/>
<path class="shapes morph" id="rec_4_b" d="M644.65 422.09C632.467 422.09 614.182 412.993 605.677 420.455C595.534 429.355 605.677 446.488 605.677 461.073C605.677 473.951 599.367 491.128 607.518 499.818C616.339 509.223 634.103 497.541 647.987 497.541C661.871 497.541 682.093 503.227 690.915 493.823C699.066 485.133 690.915 473.951 690.915 461.073C690.915 448.195 703.683 436.489 695.531 427.799C686.71 418.394 658.534 422.09 644.65 422.09Z" fill="#6E1B15"/>
<path class="shapes morph" id="rec_4_c" d="M650.321 417.594H637.456C626.421 417.594 619.61 423.906 611.908 430.676C602.721 438.749 593.648 448.407 593.648 461.639C593.648 473.321 592.806 490.926 600.189 498.81C608.178 507.342 624.881 505.683 637.456 505.683H650.321C662.896 505.683 667.42 496.168 675.409 487.636C682.791 479.752 694.128 473.321 694.128 461.639C694.128 449.956 695.873 432.836 688.491 424.952C680.501 416.421 662.896 417.594 650.321 417.594Z" fill="#6E1B15"/>
</g>
<g filter="url(#rec_blur)" id="rec5">
<path class="shapes " id="rec_5" d="M748.405 417.294H735.54C724.506 417.294 714.424 421.396 706.722 428.165C697.535 436.239 691.732 448.107 691.732 461.339C691.732 473.021 696.256 483.642 703.638 491.525C711.628 500.057 722.965 505.384 735.54 505.384H748.405C760.98 505.384 772.318 500.057 780.307 491.525C787.689 483.642 792.213 473.021 792.213 461.339C792.213 449.656 787.689 439.036 780.307 431.153C772.318 422.621 760.98 417.294 748.405 417.294Z" fill="#6E1B15"/>
<path class="shapes morph" id="rec_5_a" d="M750.116 414.269H736.368C724.576 414.269 717.951 424.438 709.72 431.684C699.902 440.327 689.552 447.254 689.552 461.418C689.552 473.924 701.83 483.142 709.72 491.581C718.257 500.714 722.929 508.567 736.368 508.567H750.116C763.554 508.567 766.863 494.507 775.401 485.374C783.29 476.935 796.932 473.924 796.932 461.418C796.932 448.912 787.106 443.666 779.217 435.227C770.679 426.094 763.554 414.269 750.116 414.269Z" fill="#6E1B15"/>
<path class="shapes morph" id="rec_5_b" d="M744.399 422.09C732.215 422.09 713.93 412.993 705.426 420.455C695.283 429.355 705.426 446.488 705.426 461.073C705.426 473.951 699.116 491.128 707.267 499.818C716.088 509.223 733.851 497.541 747.736 497.541C761.62 497.541 781.842 503.227 790.663 493.823C798.814 485.133 790.663 473.951 790.663 461.073C790.663 448.195 803.431 436.489 795.28 427.799C786.459 418.394 758.283 422.09 744.399 422.09Z" fill="#6E1B15"/>
<path class="shapes morph" id="rec_5_c" d="M750.069 417.049H737.204C726.17 417.049 719.359 423.361 711.656 430.13C702.47 438.204 693.396 447.862 693.396 461.093C693.396 472.776 692.555 490.381 699.937 498.265C707.927 506.797 724.629 505.138 737.204 505.138H750.069C762.644 505.138 767.168 495.622 775.158 487.091C782.54 479.207 793.877 472.776 793.877 461.093C793.877 449.411 795.622 432.291 788.239 424.407C780.25 415.875 762.644 417.049 750.069 417.049Z" fill="#6E1B15"/>
</g>
</g>
</svg>
