<?xml version="1.0"?>
<svg id="casssa_logo" width="1920" height="1080" xmlns="http://www.w3.org/2000/svg" xmlns:svg="http://www.w3.org/2000/svg">
 <g class="moving-elements">
  <g id="casssa 1">
   <g filter="url(#rec_blur)" id="rec1" transform="matrix(1 0 0 1 0 0)">
    <path  class="shapes morph" d="m1081.97,342.55l-23.6,0c-20.24,0 -38.74,7.52 -52.87,19.94c-16.85,14.82 -27.5,36.59 -27.5,60.87c0,21.43 8.3,40.91 21.84,55.38c14.66,15.65 35.46,25.42 58.53,25.42l23.6,0c23.07,0 43.87,-9.77 58.53,-25.42c13.54,-14.47 21.84,-33.95 21.84,-55.38c0,-21.44 -8.3,-40.92 -21.84,-55.39c-14.66,-15.65 -35.46,-25.42 -58.53,-25.42z" fill="#6E1B15" id="rec_1"/>
    <path  class="shapes morph" d="m1082.11,336.55l-25.22,0c-21.64,0 -33.79,18.66 -48.89,31.95c-18.01,15.86 -37,28.56 -37,54.55c0,22.94 22.53,39.85 37,55.34c15.66,16.75 24.23,31.16 48.89,31.16l25.22,0c24.66,0 30.73,-25.8 46.39,-42.55c14.47,-15.48 39.5,-21.01 39.5,-43.95c0,-22.94 -18.03,-32.57 -32.5,-48.05c-15.66,-16.75 -28.73,-38.45 -53.39,-38.45z" fill="#6E1B15" id="rec_1_a"/>
    <path  class="shapes morph" d="m1071.62,350.9c-22.35,0 -55.9,-16.69 -71.5,-3c-18.61,16.33 0,47.76 0,74.52c0,23.62 -11.57,55.14 3.38,71.08c16.18,17.25 48.77,-4.18 74.24,-4.18c25.48,0 62.58,10.43 78.76,-6.82c14.95,-15.94 0,-36.46 0,-60.08c0,-23.63 23.42,-45.11 8.47,-61.05c-16.18,-17.25 -67.88,-10.47 -93.35,-10.47z" fill="#6E1B15" id="rec_1_b"/>
    <path  class="shapes morph" d="m1082.03,337.1l-23.61,0c-20.24,0 -32.74,11.58 -46.87,24c-16.85,14.81 -33.5,32.53 -33.5,56.8c0,21.44 -1.54,53.74 12,68.2c14.66,15.65 45.3,12.61 68.37,12.61l23.61,0c23.07,0 31.37,-17.46 46.02,-33.11c13.55,-14.46 34.35,-26.26 34.35,-47.7c0,-21.43 3.2,-52.84 -10.35,-67.3c-14.65,-15.65 -46.95,-13.5 -70.02,-13.5z" fill="#6E1B15" id="rec_1_c"/>
   </g>
   <g filter="url(#rec_blur)" id="rec2" transform="matrix(1 0 0 1 0 0)">
    <path  class="shapes morph" d="m901.97,338.55l-23.6,0c-20.24,0 -38.74,7.52 -52.87,19.94c-16.85,14.82 -27.5,36.59 -27.5,60.87c0,21.43 8.3,40.91 21.84,55.38c14.66,15.65 35.46,25.42 58.53,25.42l23.6,0c23.07,0 43.87,-9.77 58.53,-25.42c13.54,-14.47 21.84,-33.95 21.84,-55.38c0,-21.44 -8.3,-40.92 -21.84,-55.39c-14.66,-15.65 -35.46,-25.42 -58.53,-25.42z" fill="#6E1B15" id="rec_2"/>
    <path  class="shapes morph" d="m902.11,336.55l-25.22,0c-21.64,0 -33.79,18.66 -48.89,31.95c-18.01,15.86 -37,28.56 -37,54.55c0,22.94 22.53,39.85 37,55.34c15.66,16.75 24.23,31.16 48.89,31.16l25.22,0c24.66,0 30.73,-25.8 46.39,-42.55c14.47,-15.48 39.5,-21.01 39.5,-43.95c0,-22.94 -18.03,-32.57 -32.5,-48.05c-15.66,-16.75 -28.73,-38.45 -53.39,-38.45z" fill="#6E1B15" id="rec_2_a"/>
    <path  class="shapes morph" d="m891.62,350.9c-22.35,0 -55.89,-16.69 -71.5,-3c-18.61,16.33 0,47.76 0,74.52c0,23.62 -11.57,55.14 3.38,71.08c16.18,17.25 48.77,-4.18 74.25,-4.18c25.47,0 62.57,10.43 78.75,-6.82c14.95,-15.94 0,-36.46 0,-60.08c0,-23.63 23.42,-45.11 8.47,-61.05c-16.18,-17.25 -67.87,-10.47 -93.35,-10.47z" fill="#6E1B15" id="rec_2_b"/>
    <path  class="shapes morph" d="m902.03,332.1l-23.61,0c-20.24,0 -32.74,11.58 -46.87,24c-16.85,14.81 -33.5,32.53 -33.5,56.8c0,21.44 -1.54,53.74 12,68.2c14.66,15.65 45.3,12.61 68.37,12.61l23.61,0c23.07,0 31.37,-17.46 46.02,-33.11c13.55,-14.46 34.35,-26.26 34.35,-47.7c0,-21.43 3.2,-52.84 -10.35,-67.3c-14.65,-15.65 -46.95,-13.5 -70.02,-13.5z" fill="#6E1B15" id="rec_2_c"/>
   </g>
   <g filter="url(#rec_blur)" id="rec3" transform="matrix(1 0 0 1 0 0)">
    <path  class="shapes morph" d="m889.76,498.55c-25.53,0 -28.19,0 -46.26,0c-18.07,0 -20.73,0 -46.26,0c-25.54,0 -46.24,20.82 -46.24,46.5c0,25.68 20.7,46.5 46.24,46.5c25.53,0 28.19,0 46.26,0c18.07,0 20.73,0 46.26,0c25.54,0 46.24,-20.82 46.24,-46.5c0,-25.68 -20.7,-46.5 -46.24,-46.5z" fill="#6E1B15" id="rec_3"/>
    <path  class="shapes morph" d="m892.62,497c-26.54,0 -29.31,8.5 -48.09,8.5c-18.77,0 -21.54,-8.5 -48.08,-8.5c-26.54,0 -38.45,20.82 -38.45,46.5c0,25.68 11.91,46.5 38.45,46.5c26.54,0 29.31,-8 48.08,-8c18.78,0 21.55,8 48.09,8c26.54,0 37.38,-20.82 37.38,-46.5c0,-25.68 -10.84,-46.5 -37.38,-46.5z" fill="#6E1B15" id="rec_3_a"/>
    <path  class="shapes morph" d="m892.69,505.21c-27.43,0 -30.28,-10.21 -49.69,-10.21c-19.41,0 -24.67,2.69 -52.09,2.69c-27.43,0 -34.91,19.69 -34.91,47.31c0,27.62 9.88,37.63 37.31,37.63c27.43,0 30.28,12.37 49.69,12.37c19.41,0 22.26,-9.14 49.69,-9.14c27.43,0 37.31,-13.24 37.31,-40.86c0,-27.62 -9.88,-39.79 -37.31,-39.79z" fill="#6E1B15" id="rec_3_b"/>
    <path  class="shapes morph" d="m888.47,498.48c-25.58,0 -28.24,-12.48 -46.34,-12.48c-18.1,0 -20.76,12.48 -46.34,12.48c-25.58,0 -33.79,19.8 -33.79,44.23c0,24.43 8.21,44.23 33.79,44.23c25.58,0 28.24,16.06 46.34,16.06c18.1,0 20.76,-16.06 46.34,-16.06c25.58,0 35.53,-19.8 35.53,-44.23c0,-24.43 -9.95,-44.23 -35.53,-44.23z" fill="#6E1B15" id="rec_3_c"/>
   </g>
   <g filter="url(#rec_blur)" id="rec4" transform="matrix(1 0 0 1 0 0)">
    <path  class="shapes morph" d="m901.97,588.55l-23.6,0c-20.24,0 -38.74,7.52 -52.87,19.94c-16.85,14.81 -27.5,36.59 -27.5,60.87c0,21.43 8.3,40.91 21.84,55.38c14.66,15.65 35.46,25.42 58.53,25.42l23.6,0c23.07,0 43.87,-9.77 58.53,-25.42c13.54,-14.47 21.84,-33.95 21.84,-55.38c0,-21.44 -8.3,-40.92 -21.84,-55.39c-14.66,-15.65 -35.46,-25.42 -58.53,-25.42z" fill="#6E1B15" id="rec_4"/>
    <path  class="shapes morph" d="m902.11,583l-25.22,0c-21.64,0 -33.79,18.66 -48.89,31.95c-18.01,15.86 -37,28.56 -37,54.55c0,22.94 22.53,39.86 37,55.34c15.66,16.75 24.23,31.16 48.89,31.16l25.22,0c24.66,0 30.73,-25.79 46.39,-42.55c14.47,-15.48 39.5,-21.01 39.5,-43.95c0,-22.94 -18.03,-32.57 -32.5,-48.05c-15.66,-16.75 -28.73,-38.45 -53.39,-38.45z" fill="#6E1B15" id="rec_4_a"/>
    <path  class="shapes morph" d="m891.62,597.35c-22.35,0 -55.89,-16.69 -71.5,-3c-18.61,16.33 0,47.76 0,74.52c0,23.62 -11.57,55.14 3.38,71.08c16.18,17.25 48.77,-4.18 74.25,-4.18c25.47,0 62.57,10.43 78.75,-6.82c14.95,-15.94 0,-36.46 0,-60.08c0,-23.63 23.42,-45.11 8.47,-61.05c-16.18,-17.25 -67.87,-10.47 -93.35,-10.47z" fill="#6E1B15" id="rec_4_b"/>
    <path  class="shapes morph" d="m902.03,589.1l-23.61,0c-20.24,0 -32.74,11.58 -46.87,24c-16.85,14.81 -33.5,32.53 -33.5,56.8c0,21.44 -1.54,53.74 12,68.2c14.66,15.65 45.3,12.61 68.37,12.61l23.61,0c23.07,0 31.37,-17.46 46.02,-33.11c13.55,-14.46 34.35,-26.26 34.35,-47.7c0,-21.43 3.2,-52.84 -10.35,-67.3c-14.65,-15.65 -46.95,-13.5 -70.02,-13.5z" fill="#6E1B15" id="rec_4_c"/>
   </g>
   <g filter="url(#rec_blur)" id="rec5">
    <path  class="shapes morph" d="m1081.97,587.55l-23.6,0c-20.24,0 -38.74,7.53 -52.87,19.94c-16.85,14.82 -27.5,36.59 -27.5,60.87c0,21.43 8.3,40.91 21.84,55.38c14.66,15.65 35.46,25.42 58.53,25.42l23.6,0c23.07,0 43.87,-9.77 58.53,-25.42c13.54,-14.47 21.84,-33.95 21.84,-55.38c0,-21.44 -8.3,-40.92 -21.84,-55.38c-14.66,-15.66 -35.46,-25.43 -58.53,-25.43z" fill="#6E1B15" id="rec_5"/>
    <path  class="shapes morph" d="m1085.11,582l-25.22,0c-21.64,0 -33.79,18.66 -48.89,31.95c-18.01,15.86 -37,28.56 -37,54.55c0,22.94 22.53,39.86 37,55.34c15.66,16.75 24.23,31.16 48.89,31.16l25.22,0c24.66,0 30.73,-25.79 46.39,-42.55c14.47,-15.48 39.5,-21.01 39.5,-43.95c0,-22.94 -18.03,-32.57 -32.5,-48.05c-15.66,-16.75 -28.73,-38.45 -53.39,-38.45z" fill="#6E1B15" id="rec_5_a"/>
    <path  class="shapes morph" d="m1074.62,596.35c-22.35,0 -55.9,-16.69 -71.5,-3c-18.61,16.33 0,47.76 0,74.52c0,23.62 -11.57,55.14 3.38,71.08c16.18,17.25 48.77,-4.18 74.24,-4.18c25.48,0 62.58,10.43 78.76,-6.82c14.95,-15.94 0,-36.46 0,-60.08c0,-23.63 23.42,-45.11 8.47,-61.05c-16.18,-17.25 -67.88,-10.47 -93.35,-10.47z" fill="#6E1B15" id="rec_5_b"/>
    <path  class="shapes morph" d="m1085.03,587.1l-23.61,0c-20.24,0 -32.74,11.58 -46.87,24c-16.85,14.81 -33.5,32.53 -33.5,56.8c0,21.44 -1.54,53.74 12,68.2c14.66,15.65 45.3,12.61 68.37,12.61l23.61,0c23.07,0 31.37,-17.46 46.02,-33.11c13.55,-14.46 34.35,-26.26 34.35,-47.7c0,-21.43 3.2,-52.84 -10.35,-67.3c-14.65,-15.65 -46.95,-13.5 -70.02,-13.5z" fill="#6E1B15" id="rec_5_c"/>
   </g>
  </g>
 </g>
 <defs>
  <filter height="200%" id="rec_blur" width="200%" x="-50%" y="-50%">
   <feGaussianBlur in="SourceGraphic" stdDeviation="37"/>
  </filter>
 </defs>
</svg>