<svg width="101" height="100" viewBox="0 0 101 100" fill="none" xmlns="http://www.w3.org/2000/svg">
<path d="M56.1243 84.6193C53.4863 96.0253 42.0951 101.085 31.1985 99.8065C8.92539 99.5977 3.92777 68.8384 24.5265 61.4555C15.6158 61.1111 2.56478 64.0056 0.0732952 52.138C-1.17245 36.3974 13.7252 38.7021 24.684 38.6911C6.11148 32.6455 7.58438 4.72587 26.7248 0.842033C39.3984 -1.41865 52.4457 1.64445 56.183 15.476C60.8508 -5.79713 97.6368 -4.95074 100.685 16.8537C104.95 43.3114 61.9903 48.9136 56.1463 24.4638C54.1971 32.7408 46.8802 39.1601 38.3689 39.6218C47.3712 43.3334 47.1916 57.0587 38.3469 60.3636C47.5763 61.5471 53.49 66.6364 56.161 75.4666C58.5205 66.3616 66.5629 60.1914 75.9829 60.3416C85.1648 59.6198 94.5151 62.2176 98.7323 71.0662C105.426 83.1793 96.4717 98.9528 82.7136 99.6856C71.5056 101.283 58.7221 96.7471 56.2342 84.6339C56.1976 84.6266 56.1646 84.6229 56.128 84.6156L56.1243 84.6193Z"  fill="#708090"/>
</svg>
